<?xml version="1.0" encoding="UTF-8" standalone="no"?>
<!-- Created with Inkscape (http://www.inkscape.org/) -->
<svg
   xmlns:svg="http://www.w3.org/2000/svg"
   xmlns="http://www.w3.org/2000/svg"
   version="1.0"
   width="800"
   height="600"
   id="svg1872">
  <defs
     id="defs1874" />
  <g
     style="display:inline"
     id="layer2" />
  <g
     style="opacity:1;display:inline"
     id="layer1">
    <path
       d="M 48.333333,328.33333 C 84.444445,328.33333 120.55556,328.33333 156.66667,328.33333 C 180.55556,328.33333 204.44444,328.33333 228.33333,328.33333 C 241.66667,328.33333 255,328.33333 268.33333,328.33333 L 268.65928,317.49346 C 268.92704,308.5885 287.23531,296.35597 304.09129,296.21201 C 324.51847,296.03382 337.41431,304.83038 343.33333,315 L 351.2022,142.69982 C 345.97958,142.18123 342.73654,140.97807 343.06604,137.98711 C 343.23487,136.45462 343.4723,136.58893 344.8836,135.29775 L 343.44526,134.08593 L 343.50692,128.37411 L 346.75737,124.62364 C 347.60297,123.64796 346.15094,122.34952 347.00404,121.05851 C 347.85714,119.76751 350.83859,119.98656 351.35875,119.74777 L 353.11381,82.079802 C 353.11381,82.079802 351.83319,80.808805 351.92757,79.662809 C 352.02195,78.516813 353.49133,77.495817 353.49133,77.495817 L 353.55509,56.578825 L 354.21198,56.120329 L 354.41542,48.266081 L 355.01714,47.963957 L 356.36886,25.661833 L 356.88543,48.005458 L 357.45668,48.501352 L 357.32705,56.363473 L 358.04552,57.00231 L 357.86886,77.286837 C 357.86886,77.286837 360.16306,78.346656 360.33225,79.656476 C 360.50145,80.966295 358.54564,82.526115 358.54564,82.526115 L 359.07336,113.05048 L 360.31376,113.29534 L 360.49272,119.56662 C 360.49272,119.56662 363.61294,119.32228 364.79047,120.47482 C 365.17251,121.2738 365.20285,124.17677 365.20285,124.17677 L 367.99358,127.72212 L 367.71586,134.41381 L 366.61095,135.57544 C 365.75857,136.47157 367.70103,136.33323 367.55188,138.48309 C 367.30897,141.98442 360.19073,143.05229 360.12132,143.05337 L 365.58579,310.66667 L 392.12132,311.36516 L 392.12132,284.14214"
       style="fill:none;fill-rule:evenodd;stroke:black;stroke-width:1px;stroke-linecap:butt;stroke-linejoin:miter;stroke-opacity:1"
       id="path1880" />
    <path
       d="M 391.73715,283.92327 L 412.59681,283.56971 L 412.95036,295.94408 L 419.31432,295.23698 L 418.60721,244.32529 L 434.16356,244.32529 L 434.16356,237.25422 L 449.01281,237.25422 L 449.01281,262.00296 L 469.5189,262.00296 L 469.5189,281.09484 L 478.00418,281.09484 L 478.00418,237.25422 L 492.85343,237.25422 L 492.85343,259.17453 L 512.65242,259.17453 L 512.65242,249.27504 L 521.1377,249.27504 L 521.1377,288.87302 L 535.27983,288.87302 L 535.15851,327.76389"
       style="fill:none;fill-rule:evenodd;stroke:black;stroke-width:1px;stroke-linecap:butt;stroke-linejoin:miter;stroke-opacity:1"
       id="path1882" />
  </g>
</svg>
